<?xml version="1.0" encoding="UTF-8" standalone="no"?>
<!-- Generator: Adobe Illustrator 16.0.0, SVG Export Plug-In . SVG Version: 6.00 Build 0)  -->

<svg
   xmlns:dc="http://purl.org/dc/elements/1.1/"
   xmlns:cc="http://creativecommons.org/ns#"
   xmlns:rdf="http://www.w3.org/1999/02/22-rdf-syntax-ns#"
   xmlns:svg="http://www.w3.org/2000/svg"
   xmlns="http://www.w3.org/2000/svg"
   xmlns:xlink="http://www.w3.org/1999/xlink"
   xmlns:sodipodi="http://sodipodi.sourceforge.net/DTD/sodipodi-0.dtd"
   xmlns:inkscape="http://www.inkscape.org/namespaces/inkscape"
   version="1.1"
   id="Layer_1"
   x="0px"
   y="0px"
   width="256"
   height="256"
   viewBox="0 0 256 256.00001"
   enable-background="new 0 0 612 613.605"
   xml:space="preserve"
   inkscape:version="0.91 r13725"
   sodipodi:docname="newsblur-suru-log.svg"><metadata
     id="metadata4694"><rdf:RDF><cc:Work
         rdf:about=""><dc:format>image/svg+xml</dc:format><dc:type
           rdf:resource="http://purl.org/dc/dcmitype/StillImage" /><dc:title></dc:title></cc:Work></rdf:RDF></metadata><defs
     id="defs4692" /><sodipodi:namedview
     pagecolor="#ffffff"
     bordercolor="#666666"
     borderopacity="1"
     objecttolerance="10"
     gridtolerance="10"
     guidetolerance="10"
     inkscape:pageopacity="0"
     inkscape:pageshadow="2"
     inkscape:window-width="1920"
     inkscape:window-height="1050"
     id="namedview4690"
     showgrid="false"
     inkscape:showpageshadow="false"
     showborder="true"
     inkscape:zoom="1.5843568"
     inkscape:cx="145.67279"
     inkscape:cy="128"
     inkscape:window-x="0"
     inkscape:window-y="30"
     inkscape:window-maximized="1"
     inkscape:current-layer="Layer_1" /><rect
     style="color:#000000;clip-rule:nonzero;display:inline;overflow:visible;visibility:visible;opacity:1;isolation:auto;mix-blend-mode:normal;color-interpolation:sRGB;color-interpolation-filters:linearRGB;solid-color:#000000;solid-opacity:1;fill:#eeda5b;fill-opacity:1;fill-rule:nonzero;stroke:none;stroke-width:1;stroke-linecap:butt;stroke-linejoin:miter;stroke-miterlimit:4;stroke-dasharray:none;stroke-dashoffset:0;stroke-opacity:1;marker:none;color-rendering:auto;image-rendering:auto;shape-rendering:auto;text-rendering:auto;enable-background:accumulate"
     id="rect4757"
     width="256"
     height="256"
     x="0.5"
     y="-0.5" /><g
     display="none"
     id="g4532"
     style="display:none;opacity:0.15"
     transform="translate(0,-357.60498)"><polygon
       id="XMLID_30_"
       display="inline"
       points="219.267,331.129 226.304,331.129 226.304,285.484 219.267,285.484 219.267,311.035 210.319,285.484 203.282,285.484 203.282,331.129 210.319,331.129 210.319,305.579 "
       style="display:inline;fill:#161416" /><polygon
       id="XMLID_29_"
       display="inline"
       points="353.186,323.669 344.552,323.669 344.552,285.484 336.49,285.484 336.49,323.669 336.49,331.129 344.552,331.129 353.186,331.129 "
       style="display:inline;fill:#161416" /><polygon
       id="XMLID_28_"
       display="inline"
       points="238.675,331.129 247.33,331.129 247.33,323.669 238.675,323.669 238.675,309.994 247.33,309.994 247.33,302.534 238.675,302.534 238.675,292.943 247.33,292.943 247.33,285.484 238.675,285.484 230.634,285.484 230.634,292.943 230.634,302.534 230.634,309.994 230.634,323.669 230.634,331.129 "
       style="display:inline;fill:#161416" /><polygon
       id="XMLID_27_"
       display="inline"
       points="256.565,285.484 249.461,285.484 256.921,331.129 264.38,331.129 268.288,306.264 272.195,331.129 279.3,331.129 286.759,285.484 279.655,285.484 275.838,307.776 272.195,285.484 268.288,285.484 264.38,285.484 260.563,308.837 "
       style="display:inline;fill:#161416" /><path
       id="XMLID_26_"
       display="inline"
       d="m 371.391,321.451 c 0,1.912 -1.551,3.463 -3.464,3.463 -1.911,0 -3.463,-1.551 -3.463,-3.463 l 0,-35.967 -8.259,0 0,35.967 c 0,6.474 5.248,11.722 11.722,11.722 6.476,0 11.724,-5.248 11.724,-11.722 l 0,-35.9 -8.26,0 0,35.9 z"
       inkscape:connector-curvature="0"
       style="display:inline;fill:#161416" /><path
       display="inline"
       d="m 399.929,315.855 -0.476,-0.459 c 4.271,-2.486 7.504,-7.099 7.504,-14.593 0,-4.665 -1.446,-8.413 -4.298,-11.14 -4.388,-4.196 -10.368,-4.212 -11.425,-4.179 l -7.271,0 -0.088,0 0,45.646 7.424,0 0,-13.41 0.113,0 0.112,-0.008 c 0.244,-0.015 0.488,-0.047 0.732,-0.07 l 7.237,13.487 9.059,0 -8.623,-15.274 z m -8.504,-5.613 0,-17.3 0.043,-0.002 c 0.03,0.002 3.757,-0.067 6.036,2.114 1.341,1.283 1.993,3.164 1.993,5.749 0,5.815 -2.716,8.989 -8.072,9.439 z"
       id="path4539"
       inkscape:connector-curvature="0"
       style="display:inline;fill:#161416" /><path
       display="inline"
       d="m 328.52,306.19 c 1.873,-1.944 3.176,-4.623 3.176,-8.252 0,-7.566 -5.467,-12.455 -13.924,-12.455 l -7.213,0 -0.123,0 0,17.783 0,7.458 0,19.983 0.123,0.016 0,0.404 3.41,0 c 0.458,0.046 1.359,0.118 2.547,0.118 3.285,0 8.707,-0.559 12.617,-3.778 2.622,-2.16 4.15,-5.206 4.416,-8.808 0.418,-5.641 -1.602,-9.087 -3.367,-10.985 -0.528,-0.564 -1.086,-1.053 -1.662,-1.484 z m -10.625,-13.246 c 6.34,0.048 6.342,3.767 6.342,4.995 0,4.32 -4.922,5.155 -6.342,5.306 l 0,-10.301 z m 8.214,25.166 c -0.116,1.582 -0.659,2.723 -1.707,3.592 -1.664,1.377 -4.301,1.892 -6.508,2.036 l 0,-13.013 1.818,0 c 0.031,0 3.221,0.113 5.007,2.033 1.099,1.18 1.567,2.981 1.39,5.352 z"
       id="path4541"
       inkscape:connector-curvature="0"
       style="display:inline;fill:#161416" /><path
       id="XMLID_20_"
       display="inline"
       d="m 297.302,299.642 -0.091,-0.146 c -0.027,-0.042 -2.667,-4.34 -0.501,-6.505 2.749,-2.646 6.731,-0.319 8.344,0.285 l 0,-7.792 c -0.976,-0.377 -8.319,-3.368 -13.769,2.083 -5.221,5.221 -2.826,12.5 -0.552,16.041 l 6.807,11.461 c 0.037,0.046 3.654,4.734 1.542,7.372 -2.354,2.938 -8.95,1.272 -10.613,0.808 l -0.331,7.837 c 1.537,0.443 3.612,0.797 5.844,0.797 3.938,0 8.365,-1.102 11.182,-4.763 4.507,-5.86 1.28,-13.095 -1.467,-16.636 l -6.395,-10.842 z"
       inkscape:connector-curvature="0"
       style="display:inline;fill:#161416" /></g><g
     display="none"
     id="g4544"
     style="display:none"
     transform="translate(0,-357.60498)"><g
       display="inline"
       id="g4546"
       style="display:inline"><g
         id="g4548"><defs
           id="defs4550"><polygon
             id="SVGID_11_"
             points="217.368,328.455 224.405,328.455 224.405,282.809 217.368,282.809 217.368,308.36 208.42,282.809 201.383,282.809 201.383,328.455 208.42,328.455 208.42,302.903 " /></defs><clipPath
           id="SVGID_12_"><use
             xlink:href="#SVGID_11_"
             overflow="visible"
             id="use4554"
             style="overflow:visible"
             x="0"
             y="0"
             width="100%"
             height="100%" /></clipPath><linearGradient
           id="XMLID_12_"
           gradientUnits="userSpaceOnUse"
           x1="224.30521"
           y1="251.4478"
           x2="224.30521"
           y2="334.92529"
           gradientTransform="matrix(1,0,0,-1,84,588.6055)"><stop
             offset="0"
             style="stop-color:#16234B"
             id="stop4557" /><stop
             offset="0.638"
             style="stop-color:#163964"
             id="stop4559" /><stop
             offset="1"
             style="stop-color:#12436F"
             id="stop4561" /></linearGradient><rect
           id="XMLID_19_"
           x="178.472"
           y="253.67999"
           clip-path="url(#SVGID_12_)"
           width="259.66599"
           height="83.477997"
           style="fill:url(#XMLID_12_)" /></g></g><g
       display="inline"
       id="g4564"
       style="display:inline"><g
         id="g4566"><defs
           id="defs4568"><polygon
             id="SVGID_13_"
             points="351.286,320.995 342.652,320.995 342.652,282.809 334.591,282.809 334.591,320.995 334.591,328.455 342.652,328.455 351.286,328.455 " /></defs><clipPath
           id="SVGID_14_"><use
             xlink:href="#SVGID_13_"
             overflow="visible"
             id="use4572"
             style="overflow:visible"
             x="0"
             y="0"
             width="100%"
             height="100%" /></clipPath><linearGradient
           id="XMLID_14_"
           gradientUnits="userSpaceOnUse"
           x1="224.30521"
           y1="251.4478"
           x2="224.30521"
           y2="334.92529"
           gradientTransform="matrix(1,0,0,-1,84,588.6055)"><stop
             offset="0"
             style="stop-color:#16234B"
             id="stop4575" /><stop
             offset="0.638"
             style="stop-color:#163964"
             id="stop4577" /><stop
             offset="1"
             style="stop-color:#12436F"
             id="stop4579" /></linearGradient><rect
           id="XMLID_17_"
           x="178.472"
           y="253.67999"
           clip-path="url(#SVGID_14_)"
           width="259.66599"
           height="83.477997"
           style="fill:url(#XMLID_14_)" /></g></g><g
       display="inline"
       id="g4582"
       style="display:inline"><g
         id="g4584"><defs
           id="defs4586"><polygon
             id="SVGID_15_"
             points="236.776,328.455 245.431,328.455 245.431,320.995 236.776,320.995 236.776,307.319 245.431,307.319 245.431,299.859 236.776,299.859 236.776,290.268 245.431,290.268 245.431,282.809 236.776,282.809 228.735,282.809 228.735,290.268 228.735,299.859 228.735,307.319 228.735,320.995 228.735,328.455 " /></defs><clipPath
           id="SVGID_16_"><use
             xlink:href="#SVGID_15_"
             overflow="visible"
             id="use4590"
             style="overflow:visible"
             x="0"
             y="0"
             width="100%"
             height="100%" /></clipPath><linearGradient
           id="XMLID_16_"
           gradientUnits="userSpaceOnUse"
           x1="224.30521"
           y1="251.4478"
           x2="224.30521"
           y2="334.92529"
           gradientTransform="matrix(1,0,0,-1,84,588.6055)"><stop
             offset="0"
             style="stop-color:#16234B"
             id="stop4593" /><stop
             offset="0.638"
             style="stop-color:#163964"
             id="stop4595" /><stop
             offset="1"
             style="stop-color:#12436F"
             id="stop4597" /></linearGradient><rect
           id="XMLID_15_"
           x="178.472"
           y="253.67999"
           clip-path="url(#SVGID_16_)"
           width="259.66599"
           height="83.477997"
           style="fill:url(#XMLID_16_)" /></g></g><g
       display="inline"
       id="g4600"
       style="display:inline"><g
         id="g4602"><defs
           id="defs4604"><polygon
             id="SVGID_17_"
             points="262.481,282.809 266.389,282.809 270.296,282.809 273.939,305.101 277.756,282.809 284.86,282.809 277.4,328.455 270.296,328.455 266.389,303.589 262.481,328.455 255.021,328.455 247.562,282.809 254.667,282.809 258.665,306.162 " /></defs><clipPath
           id="SVGID_18_"><use
             xlink:href="#SVGID_17_"
             overflow="visible"
             id="use4608"
             style="overflow:visible"
             x="0"
             y="0"
             width="100%"
             height="100%" /></clipPath><linearGradient
           id="XMLID_18_"
           gradientUnits="userSpaceOnUse"
           x1="224.30521"
           y1="251.4478"
           x2="224.30521"
           y2="334.92529"
           gradientTransform="matrix(1,0,0,-1,84,588.6055)"><stop
             offset="0"
             style="stop-color:#16234B"
             id="stop4611" /><stop
             offset="0.638"
             style="stop-color:#163964"
             id="stop4613" /><stop
             offset="1"
             style="stop-color:#12436F"
             id="stop4615" /></linearGradient><rect
           id="XMLID_13_"
           x="178.472"
           y="253.67999"
           clip-path="url(#SVGID_18_)"
           width="259.66599"
           height="83.477997"
           style="fill:url(#XMLID_18_)" /></g></g><g
       display="inline"
       id="g4618"
       style="display:inline"><g
         id="g4620"><defs
           id="defs4622"><path
             id="SVGID_19_"
             d="m 369.491,318.776 c 0,1.911 -1.552,3.463 -3.464,3.463 -1.912,0 -3.463,-1.551 -3.463,-3.463 l 0,-35.967 -8.26,0 0,35.967 c 0,6.474 5.248,11.722 11.723,11.722 6.475,0 11.723,-5.248 11.723,-11.722 l 0,-35.901 -8.259,0 0,35.901 z"
             inkscape:connector-curvature="0" /></defs><clipPath
           id="SVGID_20_"><use
             xlink:href="#SVGID_19_"
             overflow="visible"
             id="use4626"
             style="overflow:visible"
             x="0"
             y="0"
             width="100%"
             height="100%" /></clipPath><linearGradient
           id="XMLID_21_"
           gradientUnits="userSpaceOnUse"
           x1="224.30521"
           y1="251.4478"
           x2="224.30521"
           y2="334.92529"
           gradientTransform="matrix(1,0,0,-1,84,588.6055)"><stop
             offset="0"
             style="stop-color:#16234B"
             id="stop4629" /><stop
             offset="0.638"
             style="stop-color:#163964"
             id="stop4631" /><stop
             offset="1"
             style="stop-color:#12436F"
             id="stop4633" /></linearGradient><rect
           id="XMLID_11_"
           x="178.472"
           y="253.67999"
           clip-path="url(#SVGID_20_)"
           width="259.66599"
           height="83.477997"
           style="fill:url(#XMLID_21_)" /></g></g><g
       display="inline"
       id="g4636"
       style="display:inline"><g
         id="g4638"><defs
           id="defs4640"><path
             id="SVGID_21_"
             d="m 398.029,313.18 -0.476,-0.459 c 4.271,-2.485 7.503,-7.098 7.503,-14.594 0,-4.665 -1.445,-8.412 -4.298,-11.14 -4.387,-4.196 -10.368,-4.212 -11.425,-4.179 l -7.27,0 -0.088,0 0,45.646 7.424,0 0,-13.41 0.113,0 0.112,-0.007 c 0.243,-0.016 0.487,-0.047 0.731,-0.07 l 7.238,13.487 9.059,0 -8.623,-15.274 z m -8.504,-5.613 0,-17.3 0.043,-0.002 c 0.029,0.002 3.756,-0.067 6.035,2.114 1.342,1.283 1.994,3.164 1.994,5.749 0.002,5.815 -2.715,8.989 -8.072,9.439 z"
             inkscape:connector-curvature="0" /></defs><clipPath
           id="SVGID_22_"><use
             xlink:href="#SVGID_21_"
             overflow="visible"
             id="use4644"
             style="overflow:visible"
             x="0"
             y="0"
             width="100%"
             height="100%" /></clipPath><linearGradient
           id="XMLID_22_"
           gradientUnits="userSpaceOnUse"
           x1="224.30521"
           y1="251.4478"
           x2="224.30521"
           y2="334.92529"
           gradientTransform="matrix(1,0,0,-1,84,588.6055)"><stop
             offset="0"
             style="stop-color:#16234B"
             id="stop4647" /><stop
             offset="0.638"
             style="stop-color:#163964"
             id="stop4649" /><stop
             offset="1"
             style="stop-color:#12436F"
             id="stop4651" /></linearGradient><rect
           id="XMLID_9_"
           x="178.472"
           y="253.67999"
           clip-path="url(#SVGID_22_)"
           width="259.66599"
           height="83.477997"
           style="fill:url(#XMLID_22_)" /></g></g><g
       display="inline"
       id="g4654"
       style="display:inline"><g
         id="g4656"><defs
           id="defs4658"><path
             id="SVGID_23_"
             d="m 326.621,303.515 c 1.871,-1.944 3.175,-4.621 3.175,-8.251 0,-7.566 -5.466,-12.455 -13.925,-12.455 l -7.211,0 -0.124,0 0,17.783 0,7.459 0,19.983 0.124,0.015 0,0.405 3.41,0 c 0.457,0.046 1.357,0.118 2.546,0.118 3.284,0 8.706,-0.559 12.616,-3.778 2.623,-2.161 4.15,-5.206 4.418,-8.808 0.416,-5.641 -1.602,-9.087 -3.368,-10.986 -0.527,-0.565 -1.087,-1.054 -1.661,-1.485 z m -10.625,-13.246 c 6.339,0.047 6.34,3.767 6.34,4.995 0,4.32 -4.922,5.155 -6.34,5.305 l 0,-10.3 z m 8.215,25.166 c -0.117,1.582 -0.659,2.724 -1.708,3.593 -1.663,1.377 -4.301,1.892 -6.507,2.036 l 0,-13.013 1.818,0 c 0.031,0 3.221,0.113 5.008,2.032 1.097,1.18 1.565,2.979 1.389,5.352 z"
             inkscape:connector-curvature="0" /></defs><clipPath
           id="SVGID_24_"><use
             xlink:href="#SVGID_23_"
             overflow="visible"
             id="use4662"
             style="overflow:visible"
             x="0"
             y="0"
             width="100%"
             height="100%" /></clipPath><linearGradient
           id="XMLID_23_"
           gradientUnits="userSpaceOnUse"
           x1="224.30521"
           y1="251.4478"
           x2="224.30521"
           y2="334.92529"
           gradientTransform="matrix(1,0,0,-1,84,588.6055)"><stop
             offset="0"
             style="stop-color:#16234B"
             id="stop4665" /><stop
             offset="0.638"
             style="stop-color:#163964"
             id="stop4667" /><stop
             offset="1"
             style="stop-color:#12436F"
             id="stop4669" /></linearGradient><rect
           id="XMLID_6_"
           x="178.472"
           y="253.67999"
           clip-path="url(#SVGID_24_)"
           width="259.66599"
           height="83.477997"
           style="fill:url(#XMLID_23_)" /></g></g><g
       display="inline"
       id="g4672"
       style="display:inline"><g
         id="g4674"><defs
           id="defs4676"><path
             id="SVGID_25_"
             d="m 295.402,296.967 -0.09,-0.146 c -0.028,-0.042 -2.667,-4.339 -0.501,-6.505 2.749,-2.646 6.731,-0.319 8.343,0.285 l 0,-7.792 c -0.976,-0.377 -8.318,-3.368 -13.769,2.083 -5.221,5.221 -2.826,12.499 -0.552,16.041 l 6.807,11.462 c 0.037,0.046 3.655,4.733 1.542,7.37 -2.354,2.939 -8.95,1.274 -10.613,0.809 l -0.331,7.838 c 1.537,0.443 3.612,0.797 5.844,0.797 3.938,0 8.366,-1.102 11.182,-4.763 4.507,-5.86 1.28,-13.095 -1.468,-16.636 l -6.394,-10.843 z"
             inkscape:connector-curvature="0" /></defs><clipPath
           id="SVGID_26_"><use
             xlink:href="#SVGID_25_"
             overflow="visible"
             id="use4680"
             style="overflow:visible"
             x="0"
             y="0"
             width="100%"
             height="100%" /></clipPath><linearGradient
           id="XMLID_24_"
           gradientUnits="userSpaceOnUse"
           x1="224.30521"
           y1="251.4478"
           x2="224.30521"
           y2="334.92529"
           gradientTransform="matrix(1,0,0,-1,84,588.6055)"><stop
             offset="0"
             style="stop-color:#16234B"
             id="stop4683" /><stop
             offset="0.638"
             style="stop-color:#163964"
             id="stop4685" /><stop
             offset="1"
             style="stop-color:#12436F"
             id="stop4687" /></linearGradient><rect
           id="XMLID_2_"
           x="178.472"
           y="253.67999"
           clip-path="url(#SVGID_26_)"
           width="259.66599"
           height="83.477997"
           style="fill:url(#XMLID_24_)" /></g></g></g><rect
     style="color:#000000;clip-rule:nonzero;display:inline;overflow:visible;visibility:visible;opacity:0.199;isolation:auto;mix-blend-mode:normal;color-interpolation:sRGB;color-interpolation-filters:linearRGB;solid-color:#000000;solid-opacity:1;fill:#ffffff;fill-opacity:1;fill-rule:nonzero;stroke:none;stroke-width:1;stroke-linecap:butt;stroke-linejoin:miter;stroke-miterlimit:4;stroke-dasharray:none;stroke-dashoffset:0;stroke-opacity:1;marker:none;color-rendering:auto;image-rendering:auto;shape-rendering:auto;text-rendering:auto;enable-background:accumulate"
     id="rect4759"
     width="423.92065"
     height="326.65247"
     x="-23.558226"
     y="-326.6619"
     transform="matrix(0.7057359,0.70847501,-0.70847501,0.7057359,0,0)" /><rect
     style="color:#000000;clip-rule:nonzero;display:inline;overflow:visible;visibility:visible;opacity:0.24;isolation:auto;mix-blend-mode:normal;color-interpolation:sRGB;color-interpolation-filters:linearRGB;solid-color:#000000;solid-opacity:1;fill:#ffffff;fill-opacity:1;fill-rule:nonzero;stroke:none;stroke-width:1;stroke-linecap:butt;stroke-linejoin:miter;stroke-miterlimit:4;stroke-dasharray:none;stroke-dashoffset:0;stroke-opacity:1;marker:none;color-rendering:auto;image-rendering:auto;shape-rendering:auto;text-rendering:auto;enable-background:accumulate"
     id="rect4759-5"
     width="423.92065"
     height="326.65247"
     x="-202.79434"
     y="-180.20955"
     transform="matrix(-0.708475,0.70573591,-0.70573591,-0.708475,0,0)" /><g
     id="g4696"
     transform="matrix(0.36686323,0,0,0.36686323,16.106715,146.90445)"><g
       transform="translate(0,-357.60498)"
       id="g4436"><linearGradient
         gradientTransform="matrix(1,0,0,-1,84,588.6055)"
         y2="555.34027"
         x2="220.9995"
         y1="9.7212"
         x1="220.9995"
         gradientUnits="userSpaceOnUse"
         id="XMLID_3_"><stop
           id="stop4439"
           style="stop-color:#C35F28"
           offset="0" /><stop
           id="stop4441"
           style="stop-color:#E6A33F"
           offset="1" /></linearGradient><circle
         style="fill:url(#XMLID_3_)"
         r="272.81"
         cy="306.07501"
         cx="305"
         id="XMLID_45_" /><g
         id="g4444"><g
           id="g4446"><defs
             id="defs4448"><polygon
               points="251.962,436.686 131.338,480.8 175.452,360.175 58.964,306.075 175.452,251.974 131.338,131.349 251.962,175.464 306.063,58.975 360.164,175.464 480.789,131.349 436.674,251.974 553.163,306.075 436.674,360.175 480.789,480.8 360.164,436.686 306.063,553.174 "
               id="SVGID_1_" /></defs><clipPath
             id="SVGID_2_"><use
               height="100%"
               width="100%"
               y="0"
               x="0"
               style="overflow:visible"
               id="use4452"
               overflow="visible"
               xlink:href="#SVGID_1_" /></clipPath><linearGradient
             gradientTransform="matrix(1,0,0,-1,84,588.6055)"
             y2="666.68762"
             x2="20.2687"
             y1="170.2749"
             x1="280.7598"
             gradientUnits="userSpaceOnUse"
             id="XMLID_4_"><stop
               id="stop4455"
               style="stop-color:#EEDA5B"
               offset="0" /><stop
               id="stop4457"
               style="stop-color:#F0DE81"
               offset="0.2268" /><stop
               id="stop4459"
               style="stop-color:#F2E19C"
               offset="0.4536" /><stop
               id="stop4461"
               style="stop-color:#F3E3B0"
               offset="0.6644" /><stop
               id="stop4463"
               style="stop-color:#F4E5BC"
               offset="0.8528" /><stop
               id="stop4465"
               style="stop-color:#F4E5C0"
               offset="1" /></linearGradient><circle
             style="fill:url(#XMLID_4_)"
             r="273.20901"
             cy="306.47501"
             cx="306.06299"
             clip-path="url(#SVGID_2_)"
             id="XMLID_44_" /></g></g><g
         id="g4468"><g
           id="g4470"><defs
             id="defs4472"><path
               inkscape:connector-curvature="0"
               d="m 305,436.085 c -71.101,0 -128.945,-57.845 -128.945,-128.945 0,-71.1 57.844,-128.945 128.945,-128.945 71.102,0 128.945,57.845 128.945,128.945 0,71.1 -57.843,128.945 -128.945,128.945 z m 0,-236.577 c -59.348,0 -107.632,48.284 -107.632,107.632 0,59.35 48.284,107.633 107.632,107.633 59.35,0 107.632,-48.283 107.632,-107.633 0,-59.348 -48.282,-107.632 -107.632,-107.632 z"
               id="SVGID_3_" /></defs><clipPath
             id="SVGID_4_"><use
               height="100%"
               width="100%"
               y="0"
               x="0"
               style="overflow:visible"
               id="use4476"
               overflow="visible"
               xlink:href="#SVGID_3_" /></clipPath><linearGradient
             gradientTransform="matrix(1,0,0,-1,84,588.6055)"
             y2="555.34027"
             x2="220.9995"
             y1="9.7212"
             x1="220.9995"
             gradientUnits="userSpaceOnUse"
             id="XMLID_5_"><stop
               id="stop4479"
               style="stop-color:#C35F28"
               offset="0" /><stop
               id="stop4481"
               style="stop-color:#E6A33F"
               offset="1" /></linearGradient><circle
             style="fill:url(#XMLID_5_)"
             r="272.81"
             cy="306.07501"
             cx="305"
             clip-path="url(#SVGID_4_)"
             id="XMLID_42_" /></g></g><g
         id="g4484"><g
           id="g4486"><defs
             id="defs4488"><path
               inkscape:connector-curvature="0"
               d="m 305,478.752 c -94.627,0 -171.613,-76.984 -171.613,-171.612 0,-94.626 76.985,-171.612 171.613,-171.612 94.628,0 171.612,76.985 171.612,171.612 0,94.628 -76.984,171.612 -171.612,171.612 z m 0,-332.485 c -88.707,0 -160.874,72.167 -160.874,160.874 0,88.707 72.167,160.874 160.874,160.874 88.706,0 160.874,-72.169 160.874,-160.875 0,-88.706 -72.168,-160.873 -160.874,-160.873 z"
               id="SVGID_5_" /></defs><clipPath
             id="SVGID_6_"><use
               height="100%"
               width="100%"
               y="0"
               x="0"
               style="overflow:visible"
               id="use4492"
               overflow="visible"
               xlink:href="#SVGID_5_" /></clipPath><linearGradient
             gradientTransform="matrix(1,0,0,-1,84,588.6055)"
             y2="555.34027"
             x2="220.9995"
             y1="9.7212"
             x1="220.9995"
             gradientUnits="userSpaceOnUse"
             id="XMLID_7_"><stop
               id="stop4495"
               style="stop-color:#C35F28"
               offset="0" /><stop
               id="stop4497"
               style="stop-color:#E6A33F"
               offset="1" /></linearGradient><circle
             style="fill:url(#XMLID_7_)"
             r="272.81"
             cy="306.07501"
             cx="305"
             clip-path="url(#SVGID_6_)"
             id="XMLID_39_" /></g></g><g
         id="g4500"><g
           id="g4502"><defs
             id="defs4504"><path
               inkscape:connector-curvature="0"
               d="m 305,510.105 c -111.916,0 -202.965,-91.05 -202.965,-202.966 0,-111.915 91.049,-202.965 202.965,-202.965 111.915,0 202.965,91.05 202.965,202.965 0,111.917 -91.05,202.966 -202.965,202.966 z m 0,-393.229 c -104.912,0 -190.265,85.353 -190.265,190.264 0,104.913 85.353,190.266 190.265,190.266 104.912,0 190.265,-85.353 190.265,-190.266 0,-104.911 -85.353,-190.264 -190.265,-190.264 z"
               id="SVGID_7_" /></defs><clipPath
             id="SVGID_8_"><use
               height="100%"
               width="100%"
               y="0"
               x="0"
               style="overflow:visible"
               id="use4508"
               overflow="visible"
               xlink:href="#SVGID_7_" /></clipPath><linearGradient
             gradientTransform="matrix(1,0,0,-1,84,588.6055)"
             y2="555.34027"
             x2="220.9995"
             y1="9.7212"
             x1="220.9995"
             gradientUnits="userSpaceOnUse"
             id="XMLID_8_"><stop
               id="stop4511"
               style="stop-color:#C35F28"
               offset="0" /><stop
               id="stop4513"
               style="stop-color:#E6A33F"
               offset="1" /></linearGradient><circle
             style="fill:url(#XMLID_8_)"
             r="272.81"
             cy="306.07501"
             cx="305"
             clip-path="url(#SVGID_8_)"
             id="XMLID_36_" /></g></g><g
         id="g4516"><g
           id="g4518"><defs
             id="defs4520"><path
               inkscape:connector-curvature="0"
               d="m 305,542.923 c -62.98,0 -122.19,-24.523 -166.725,-69.059 -44.534,-44.533 -69.06,-103.744 -69.06,-166.726 0,-62.979 24.526,-122.189 69.06,-166.725 C 182.81,95.882 242.02,71.356 305,71.356 c 62.98,0 122.191,24.526 166.724,69.059 44.534,44.534 69.061,103.745 69.061,166.725 0,62.98 -24.525,122.191 -69.061,166.726 C 427.191,518.399 367.98,542.923 305,542.923 Z M 305,86.11 c -121.876,0 -221.03,99.154 -221.03,221.03 0,121.876 99.154,221.029 221.03,221.029 121.876,0 221.029,-99.153 221.029,-221.029 C 526.029,185.264 426.876,86.11 305,86.11 Z"
               id="SVGID_9_" /></defs><clipPath
             id="SVGID_10_"><use
               height="100%"
               width="100%"
               y="0"
               x="0"
               style="overflow:visible"
               id="use4524"
               overflow="visible"
               xlink:href="#SVGID_9_" /></clipPath><linearGradient
             gradientTransform="matrix(1,0,0,-1,84,588.6055)"
             y2="555.34027"
             x2="220.9995"
             y1="9.7212"
             x1="220.9995"
             gradientUnits="userSpaceOnUse"
             id="XMLID_10_"><stop
               id="stop4527"
               style="stop-color:#C35F28"
               offset="0" /><stop
               id="stop4529"
               style="stop-color:#E6A33F"
               offset="1" /></linearGradient><circle
             style="fill:url(#XMLID_10_)"
             r="272.81"
             cy="306.07501"
             cx="305"
             clip-path="url(#SVGID_10_)"
             id="XMLID_33_" /></g></g></g></g></svg>