<?xml version="1.0" encoding="UTF-8" standalone="no"?>
<!-- Generator: Adobe Illustrator 16.0.0, SVG Export Plug-In . SVG Version: 6.00 Build 0)  -->

<svg
   xmlns:dc="http://purl.org/dc/elements/1.1/"
   xmlns:cc="http://creativecommons.org/ns#"
   xmlns:rdf="http://www.w3.org/1999/02/22-rdf-syntax-ns#"
   xmlns:svg="http://www.w3.org/2000/svg"
   xmlns="http://www.w3.org/2000/svg"
   xmlns:xlink="http://www.w3.org/1999/xlink"
   xmlns:sodipodi="http://sodipodi.sourceforge.net/DTD/sodipodi-0.dtd"
   xmlns:inkscape="http://www.inkscape.org/namespaces/inkscape"
   version="1.1"
   id="Layer_1"
   x="0px"
   y="0px"
   width="256"
   height="256"
   viewBox="0 0 256 256.00001"
   enable-background="new 0 0 612 613.605"
   xml:space="preserve"
   inkscape:version="0.92.0 15301"
   sodipodi:docname="newsblur-suru-logo-unclip.svg"><metadata
     id="metadata4694"><rdf:RDF><cc:Work
         rdf:about=""><dc:format>image/svg+xml</dc:format><dc:type
           rdf:resource="http://purl.org/dc/dcmitype/StillImage" /><dc:title></dc:title></cc:Work></rdf:RDF></metadata><defs
     id="defs4692"><linearGradient
       gradientTransform="matrix(0.36686323,0,0,-0.36686323,46.923226,231.65005)"
       y2="555.34027"
       x2="220.9995"
       y1="9.7212"
       x1="220.9995"
       gradientUnits="userSpaceOnUse"
       id="XMLID_3_-3"><stop
         id="stop4439-6"
         style="stop-color:#C35F28"
         offset="0" /><stop
         id="stop4441-7"
         style="stop-color:#E6A33F"
         offset="1" /></linearGradient><linearGradient
       gradientTransform="matrix(1,0,0,-1,84,588.6055)"
       y2="555.34027"
       x2="220.9995"
       y1="9.7212"
       x1="220.9995"
       gradientUnits="userSpaceOnUse"
       id="XMLID_5_"><stop
         id="stop4479"
         style="stop-color:#C35F28"
         offset="0" /><stop
         id="stop4481"
         style="stop-color:#E6A33F"
         offset="1" /></linearGradient><linearGradient
       gradientTransform="matrix(0.36686323,0,0,-0.36686323,46.923226,231.65005)"
       y2="666.68762"
       x2="20.2687"
       y1="170.2749"
       x1="280.7598"
       gradientUnits="userSpaceOnUse"
       id="XMLID_4_-6"><stop
         id="stop4455-1"
         style="stop-color:#EEDA5B"
         offset="0" /><stop
         id="stop4457-8"
         style="stop-color:#F0DE81"
         offset="0.2268" /><stop
         id="stop4459-7"
         style="stop-color:#F2E19C"
         offset="0.4536" /><stop
         id="stop4461-9"
         style="stop-color:#F3E3B0"
         offset="0.6644" /><stop
         id="stop4463-2"
         style="stop-color:#F4E5BC"
         offset="0.8528" /><stop
         id="stop4465-0"
         style="stop-color:#F4E5C0"
         offset="1" /></linearGradient><linearGradient
       inkscape:collect="always"
       xlink:href="#XMLID_5_"
       id="linearGradient5207"
       gradientUnits="userSpaceOnUse"
       gradientTransform="matrix(0.36686323,0,0,-0.36686323,46.923226,231.65005)"
       x1="220.9995"
       y1="9.7212"
       x2="220.9995"
       y2="555.34027" /><linearGradient
       inkscape:collect="always"
       xlink:href="#XMLID_5_"
       id="linearGradient5209"
       gradientUnits="userSpaceOnUse"
       gradientTransform="matrix(0.36686323,0,0,-0.36686323,46.923226,231.65005)"
       x1="220.9995"
       y1="9.7212"
       x2="220.9995"
       y2="555.34027" /><linearGradient
       inkscape:collect="always"
       xlink:href="#XMLID_5_"
       id="linearGradient5211"
       gradientUnits="userSpaceOnUse"
       gradientTransform="matrix(0.36686323,0,0,-0.36686323,46.923226,231.65005)"
       x1="220.9995"
       y1="9.7212"
       x2="220.9995"
       y2="555.34027" /><linearGradient
       inkscape:collect="always"
       xlink:href="#XMLID_5_"
       id="linearGradient5213"
       gradientUnits="userSpaceOnUse"
       gradientTransform="matrix(0.36686323,0,0,-0.36686323,46.923226,231.65005)"
       x1="220.9995"
       y1="9.7212"
       x2="220.9995"
       y2="555.34027" /></defs><sodipodi:namedview
     pagecolor="#ffffff"
     bordercolor="#666666"
     borderopacity="1"
     objecttolerance="10"
     gridtolerance="10"
     guidetolerance="10"
     inkscape:pageopacity="0"
     inkscape:pageshadow="2"
     inkscape:window-width="2029"
     inkscape:window-height="1053"
     id="namedview4690"
     showgrid="false"
     inkscape:showpageshadow="false"
     showborder="true"
     inkscape:zoom="1.5843568"
     inkscape:cx="-5.010408"
     inkscape:cy="128"
     inkscape:window-x="0"
     inkscape:window-y="0"
     inkscape:window-maximized="0"
     inkscape:current-layer="layer1" /><g
     display="none"
     id="g4532"
     style="display:none;opacity:0.15"
     transform="translate(0,-357.60498)"><polygon
       id="XMLID_30_"
       display="inline"
       points="219.267,331.129 226.304,331.129 226.304,285.484 219.267,285.484 219.267,311.035 210.319,285.484 203.282,285.484 203.282,331.129 210.319,331.129 210.319,305.579 "
       style="display:inline;fill:#161416" /><polygon
       id="XMLID_29_"
       display="inline"
       points="353.186,323.669 344.552,323.669 344.552,285.484 336.49,285.484 336.49,323.669 336.49,331.129 344.552,331.129 353.186,331.129 "
       style="display:inline;fill:#161416" /><polygon
       id="XMLID_28_"
       display="inline"
       points="238.675,331.129 247.33,331.129 247.33,323.669 238.675,323.669 238.675,309.994 247.33,309.994 247.33,302.534 238.675,302.534 238.675,292.943 247.33,292.943 247.33,285.484 238.675,285.484 230.634,285.484 230.634,292.943 230.634,302.534 230.634,309.994 230.634,323.669 230.634,331.129 "
       style="display:inline;fill:#161416" /><polygon
       id="XMLID_27_"
       display="inline"
       points="256.565,285.484 249.461,285.484 256.921,331.129 264.38,331.129 268.288,306.264 272.195,331.129 279.3,331.129 286.759,285.484 279.655,285.484 275.838,307.776 272.195,285.484 268.288,285.484 264.38,285.484 260.563,308.837 "
       style="display:inline;fill:#161416" /><path
       id="XMLID_26_"
       display="inline"
       d="m 371.391,321.451 c 0,1.912 -1.551,3.463 -3.464,3.463 -1.911,0 -3.463,-1.551 -3.463,-3.463 l 0,-35.967 -8.259,0 0,35.967 c 0,6.474 5.248,11.722 11.722,11.722 6.476,0 11.724,-5.248 11.724,-11.722 l 0,-35.9 -8.26,0 0,35.9 z"
       inkscape:connector-curvature="0"
       style="display:inline;fill:#161416" /><path
       display="inline"
       d="m 399.929,315.855 -0.476,-0.459 c 4.271,-2.486 7.504,-7.099 7.504,-14.593 0,-4.665 -1.446,-8.413 -4.298,-11.14 -4.388,-4.196 -10.368,-4.212 -11.425,-4.179 l -7.271,0 -0.088,0 0,45.646 7.424,0 0,-13.41 0.113,0 0.112,-0.008 c 0.244,-0.015 0.488,-0.047 0.732,-0.07 l 7.237,13.487 9.059,0 -8.623,-15.274 z m -8.504,-5.613 0,-17.3 0.043,-0.002 c 0.03,0.002 3.757,-0.067 6.036,2.114 1.341,1.283 1.993,3.164 1.993,5.749 0,5.815 -2.716,8.989 -8.072,9.439 z"
       id="path4539"
       inkscape:connector-curvature="0"
       style="display:inline;fill:#161416" /><path
       display="inline"
       d="m 328.52,306.19 c 1.873,-1.944 3.176,-4.623 3.176,-8.252 0,-7.566 -5.467,-12.455 -13.924,-12.455 l -7.213,0 -0.123,0 0,17.783 0,7.458 0,19.983 0.123,0.016 0,0.404 3.41,0 c 0.458,0.046 1.359,0.118 2.547,0.118 3.285,0 8.707,-0.559 12.617,-3.778 2.622,-2.16 4.15,-5.206 4.416,-8.808 0.418,-5.641 -1.602,-9.087 -3.367,-10.985 -0.528,-0.564 -1.086,-1.053 -1.662,-1.484 z m -10.625,-13.246 c 6.34,0.048 6.342,3.767 6.342,4.995 0,4.32 -4.922,5.155 -6.342,5.306 l 0,-10.301 z m 8.214,25.166 c -0.116,1.582 -0.659,2.723 -1.707,3.592 -1.664,1.377 -4.301,1.892 -6.508,2.036 l 0,-13.013 1.818,0 c 0.031,0 3.221,0.113 5.007,2.033 1.099,1.18 1.567,2.981 1.39,5.352 z"
       id="path4541"
       inkscape:connector-curvature="0"
       style="display:inline;fill:#161416" /><path
       id="XMLID_20_"
       display="inline"
       d="m 297.302,299.642 -0.091,-0.146 c -0.027,-0.042 -2.667,-4.34 -0.501,-6.505 2.749,-2.646 6.731,-0.319 8.344,0.285 l 0,-7.792 c -0.976,-0.377 -8.319,-3.368 -13.769,2.083 -5.221,5.221 -2.826,12.5 -0.552,16.041 l 6.807,11.461 c 0.037,0.046 3.654,4.734 1.542,7.372 -2.354,2.938 -8.95,1.272 -10.613,0.808 l -0.331,7.837 c 1.537,0.443 3.612,0.797 5.844,0.797 3.938,0 8.365,-1.102 11.182,-4.763 4.507,-5.86 1.28,-13.095 -1.467,-16.636 l -6.395,-10.842 z"
       inkscape:connector-curvature="0"
       style="display:inline;fill:#161416" /></g><g
     display="none"
     id="g4544"
     style="display:none"
     transform="translate(0,-357.60498)"><g
       display="inline"
       id="g4546"
       style="display:inline"><g
         id="g4548"><defs
           id="defs4550"><polygon
             id="SVGID_11_"
             points="217.368,328.455 224.405,328.455 224.405,282.809 217.368,282.809 217.368,308.36 208.42,282.809 201.383,282.809 201.383,328.455 208.42,328.455 208.42,302.903 " /></defs><clipPath
           id="SVGID_12_"><use
             xlink:href="#SVGID_11_"
             overflow="visible"
             id="use4554"
             style="overflow:visible"
             x="0"
             y="0"
             width="100%"
             height="100%" /></clipPath><linearGradient
           id="XMLID_12_"
           gradientUnits="userSpaceOnUse"
           x1="224.30521"
           y1="251.4478"
           x2="224.30521"
           y2="334.92529"
           gradientTransform="matrix(1,0,0,-1,84,588.6055)"><stop
             offset="0"
             style="stop-color:#16234B"
             id="stop4557" /><stop
             offset="0.638"
             style="stop-color:#163964"
             id="stop4559" /><stop
             offset="1"
             style="stop-color:#12436F"
             id="stop4561" /></linearGradient><rect
           id="XMLID_19_"
           x="178.472"
           y="253.67999"
           clip-path="url(#SVGID_12_)"
           width="259.66599"
           height="83.477997"
           style="fill:url(#XMLID_12_)" /></g></g><g
       display="inline"
       id="g4564"
       style="display:inline"><g
         id="g4566"><defs
           id="defs4568"><polygon
             id="SVGID_13_"
             points="351.286,320.995 342.652,320.995 342.652,282.809 334.591,282.809 334.591,320.995 334.591,328.455 342.652,328.455 351.286,328.455 " /></defs><clipPath
           id="SVGID_14_"><use
             xlink:href="#SVGID_13_"
             overflow="visible"
             id="use4572"
             style="overflow:visible"
             x="0"
             y="0"
             width="100%"
             height="100%" /></clipPath><linearGradient
           id="XMLID_14_"
           gradientUnits="userSpaceOnUse"
           x1="224.30521"
           y1="251.4478"
           x2="224.30521"
           y2="334.92529"
           gradientTransform="matrix(1,0,0,-1,84,588.6055)"><stop
             offset="0"
             style="stop-color:#16234B"
             id="stop4575" /><stop
             offset="0.638"
             style="stop-color:#163964"
             id="stop4577" /><stop
             offset="1"
             style="stop-color:#12436F"
             id="stop4579" /></linearGradient><rect
           id="XMLID_17_"
           x="178.472"
           y="253.67999"
           clip-path="url(#SVGID_14_)"
           width="259.66599"
           height="83.477997"
           style="fill:url(#XMLID_14_)" /></g></g><g
       display="inline"
       id="g4582"
       style="display:inline"><g
         id="g4584"><defs
           id="defs4586"><polygon
             id="SVGID_15_"
             points="236.776,328.455 245.431,328.455 245.431,320.995 236.776,320.995 236.776,307.319 245.431,307.319 245.431,299.859 236.776,299.859 236.776,290.268 245.431,290.268 245.431,282.809 236.776,282.809 228.735,282.809 228.735,290.268 228.735,299.859 228.735,307.319 228.735,320.995 228.735,328.455 " /></defs><clipPath
           id="SVGID_16_"><use
             xlink:href="#SVGID_15_"
             overflow="visible"
             id="use4590"
             style="overflow:visible"
             x="0"
             y="0"
             width="100%"
             height="100%" /></clipPath><linearGradient
           id="XMLID_16_"
           gradientUnits="userSpaceOnUse"
           x1="224.30521"
           y1="251.4478"
           x2="224.30521"
           y2="334.92529"
           gradientTransform="matrix(1,0,0,-1,84,588.6055)"><stop
             offset="0"
             style="stop-color:#16234B"
             id="stop4593" /><stop
             offset="0.638"
             style="stop-color:#163964"
             id="stop4595" /><stop
             offset="1"
             style="stop-color:#12436F"
             id="stop4597" /></linearGradient><rect
           id="XMLID_15_"
           x="178.472"
           y="253.67999"
           clip-path="url(#SVGID_16_)"
           width="259.66599"
           height="83.477997"
           style="fill:url(#XMLID_16_)" /></g></g><g
       display="inline"
       id="g4600"
       style="display:inline"><g
         id="g4602"><defs
           id="defs4604"><polygon
             id="SVGID_17_"
             points="262.481,282.809 266.389,282.809 270.296,282.809 273.939,305.101 277.756,282.809 284.86,282.809 277.4,328.455 270.296,328.455 266.389,303.589 262.481,328.455 255.021,328.455 247.562,282.809 254.667,282.809 258.665,306.162 " /></defs><clipPath
           id="SVGID_18_"><use
             xlink:href="#SVGID_17_"
             overflow="visible"
             id="use4608"
             style="overflow:visible"
             x="0"
             y="0"
             width="100%"
             height="100%" /></clipPath><linearGradient
           id="XMLID_18_"
           gradientUnits="userSpaceOnUse"
           x1="224.30521"
           y1="251.4478"
           x2="224.30521"
           y2="334.92529"
           gradientTransform="matrix(1,0,0,-1,84,588.6055)"><stop
             offset="0"
             style="stop-color:#16234B"
             id="stop4611" /><stop
             offset="0.638"
             style="stop-color:#163964"
             id="stop4613" /><stop
             offset="1"
             style="stop-color:#12436F"
             id="stop4615" /></linearGradient><rect
           id="XMLID_13_"
           x="178.472"
           y="253.67999"
           clip-path="url(#SVGID_18_)"
           width="259.66599"
           height="83.477997"
           style="fill:url(#XMLID_18_)" /></g></g><g
       display="inline"
       id="g4618"
       style="display:inline"><g
         id="g4620"><defs
           id="defs4622"><path
             id="SVGID_19_"
             d="m 369.491,318.776 c 0,1.911 -1.552,3.463 -3.464,3.463 -1.912,0 -3.463,-1.551 -3.463,-3.463 l 0,-35.967 -8.26,0 0,35.967 c 0,6.474 5.248,11.722 11.723,11.722 6.475,0 11.723,-5.248 11.723,-11.722 l 0,-35.901 -8.259,0 0,35.901 z"
             inkscape:connector-curvature="0" /></defs><clipPath
           id="SVGID_20_"><use
             xlink:href="#SVGID_19_"
             overflow="visible"
             id="use4626"
             style="overflow:visible"
             x="0"
             y="0"
             width="100%"
             height="100%" /></clipPath><linearGradient
           id="XMLID_21_"
           gradientUnits="userSpaceOnUse"
           x1="224.30521"
           y1="251.4478"
           x2="224.30521"
           y2="334.92529"
           gradientTransform="matrix(1,0,0,-1,84,588.6055)"><stop
             offset="0"
             style="stop-color:#16234B"
             id="stop4629" /><stop
             offset="0.638"
             style="stop-color:#163964"
             id="stop4631" /><stop
             offset="1"
             style="stop-color:#12436F"
             id="stop4633" /></linearGradient><rect
           id="XMLID_11_"
           x="178.472"
           y="253.67999"
           clip-path="url(#SVGID_20_)"
           width="259.66599"
           height="83.477997"
           style="fill:url(#XMLID_21_)" /></g></g><g
       display="inline"
       id="g4636"
       style="display:inline"><g
         id="g4638"><defs
           id="defs4640"><path
             id="SVGID_21_"
             d="m 398.029,313.18 -0.476,-0.459 c 4.271,-2.485 7.503,-7.098 7.503,-14.594 0,-4.665 -1.445,-8.412 -4.298,-11.14 -4.387,-4.196 -10.368,-4.212 -11.425,-4.179 l -7.27,0 -0.088,0 0,45.646 7.424,0 0,-13.41 0.113,0 0.112,-0.007 c 0.243,-0.016 0.487,-0.047 0.731,-0.07 l 7.238,13.487 9.059,0 -8.623,-15.274 z m -8.504,-5.613 0,-17.3 0.043,-0.002 c 0.029,0.002 3.756,-0.067 6.035,2.114 1.342,1.283 1.994,3.164 1.994,5.749 0.002,5.815 -2.715,8.989 -8.072,9.439 z"
             inkscape:connector-curvature="0" /></defs><clipPath
           id="SVGID_22_"><use
             xlink:href="#SVGID_21_"
             overflow="visible"
             id="use4644"
             style="overflow:visible"
             x="0"
             y="0"
             width="100%"
             height="100%" /></clipPath><linearGradient
           id="XMLID_22_"
           gradientUnits="userSpaceOnUse"
           x1="224.30521"
           y1="251.4478"
           x2="224.30521"
           y2="334.92529"
           gradientTransform="matrix(1,0,0,-1,84,588.6055)"><stop
             offset="0"
             style="stop-color:#16234B"
             id="stop4647" /><stop
             offset="0.638"
             style="stop-color:#163964"
             id="stop4649" /><stop
             offset="1"
             style="stop-color:#12436F"
             id="stop4651" /></linearGradient><rect
           id="XMLID_9_"
           x="178.472"
           y="253.67999"
           clip-path="url(#SVGID_22_)"
           width="259.66599"
           height="83.477997"
           style="fill:url(#XMLID_22_)" /></g></g><g
       display="inline"
       id="g4654"
       style="display:inline"><g
         id="g4656"><defs
           id="defs4658"><path
             id="SVGID_23_"
             d="m 326.621,303.515 c 1.871,-1.944 3.175,-4.621 3.175,-8.251 0,-7.566 -5.466,-12.455 -13.925,-12.455 l -7.211,0 -0.124,0 0,17.783 0,7.459 0,19.983 0.124,0.015 0,0.405 3.41,0 c 0.457,0.046 1.357,0.118 2.546,0.118 3.284,0 8.706,-0.559 12.616,-3.778 2.623,-2.161 4.15,-5.206 4.418,-8.808 0.416,-5.641 -1.602,-9.087 -3.368,-10.986 -0.527,-0.565 -1.087,-1.054 -1.661,-1.485 z m -10.625,-13.246 c 6.339,0.047 6.34,3.767 6.34,4.995 0,4.32 -4.922,5.155 -6.34,5.305 l 0,-10.3 z m 8.215,25.166 c -0.117,1.582 -0.659,2.724 -1.708,3.593 -1.663,1.377 -4.301,1.892 -6.507,2.036 l 0,-13.013 1.818,0 c 0.031,0 3.221,0.113 5.008,2.032 1.097,1.18 1.565,2.979 1.389,5.352 z"
             inkscape:connector-curvature="0" /></defs><clipPath
           id="SVGID_24_"><use
             xlink:href="#SVGID_23_"
             overflow="visible"
             id="use4662"
             style="overflow:visible"
             x="0"
             y="0"
             width="100%"
             height="100%" /></clipPath><linearGradient
           id="XMLID_23_"
           gradientUnits="userSpaceOnUse"
           x1="224.30521"
           y1="251.4478"
           x2="224.30521"
           y2="334.92529"
           gradientTransform="matrix(1,0,0,-1,84,588.6055)"><stop
             offset="0"
             style="stop-color:#16234B"
             id="stop4665" /><stop
             offset="0.638"
             style="stop-color:#163964"
             id="stop4667" /><stop
             offset="1"
             style="stop-color:#12436F"
             id="stop4669" /></linearGradient><rect
           id="XMLID_6_"
           x="178.472"
           y="253.67999"
           clip-path="url(#SVGID_24_)"
           width="259.66599"
           height="83.477997"
           style="fill:url(#XMLID_23_)" /></g></g><g
       display="inline"
       id="g4672"
       style="display:inline"><g
         id="g4674"><defs
           id="defs4676"><path
             id="SVGID_25_"
             d="m 295.402,296.967 -0.09,-0.146 c -0.028,-0.042 -2.667,-4.339 -0.501,-6.505 2.749,-2.646 6.731,-0.319 8.343,0.285 l 0,-7.792 c -0.976,-0.377 -8.318,-3.368 -13.769,2.083 -5.221,5.221 -2.826,12.499 -0.552,16.041 l 6.807,11.462 c 0.037,0.046 3.655,4.733 1.542,7.37 -2.354,2.939 -8.95,1.274 -10.613,0.809 l -0.331,7.838 c 1.537,0.443 3.612,0.797 5.844,0.797 3.938,0 8.366,-1.102 11.182,-4.763 4.507,-5.86 1.28,-13.095 -1.468,-16.636 l -6.394,-10.843 z"
             inkscape:connector-curvature="0" /></defs><clipPath
           id="SVGID_26_"><use
             xlink:href="#SVGID_25_"
             overflow="visible"
             id="use4680"
             style="overflow:visible"
             x="0"
             y="0"
             width="100%"
             height="100%" /></clipPath><linearGradient
           id="XMLID_24_"
           gradientUnits="userSpaceOnUse"
           x1="224.30521"
           y1="251.4478"
           x2="224.30521"
           y2="334.92529"
           gradientTransform="matrix(1,0,0,-1,84,588.6055)"><stop
             offset="0"
             style="stop-color:#16234B"
             id="stop4683" /><stop
             offset="0.638"
             style="stop-color:#163964"
             id="stop4685" /><stop
             offset="1"
             style="stop-color:#12436F"
             id="stop4687" /></linearGradient><rect
           id="XMLID_2_"
           x="178.472"
           y="253.67999"
           clip-path="url(#SVGID_26_)"
           width="259.66599"
           height="83.477997"
           style="fill:url(#XMLID_24_)" /></g></g></g><g
     inkscape:groupmode="layer"
     id="layer1"
     inkscape:label="Background"
     style="display:inline"
     sodipodi:insensitive="true"><rect
       style="color:#000000;clip-rule:nonzero;display:inline;overflow:visible;visibility:visible;opacity:1;isolation:auto;mix-blend-mode:normal;color-interpolation:sRGB;color-interpolation-filters:linearRGB;solid-color:#000000;solid-opacity:1;fill:#eeda5b;fill-opacity:1;fill-rule:nonzero;stroke:none;stroke-width:1;stroke-linecap:butt;stroke-linejoin:miter;stroke-miterlimit:4;stroke-dasharray:none;stroke-dashoffset:0;stroke-opacity:1;marker:none;color-rendering:auto;image-rendering:auto;shape-rendering:auto;text-rendering:auto;enable-background:accumulate"
       id="rect4757"
       width="256"
       height="256"
       x="0"
       y="0" /><rect
       style="color:#000000;clip-rule:nonzero;display:inline;overflow:visible;visibility:visible;opacity:0.19899998;isolation:auto;mix-blend-mode:normal;color-interpolation:sRGB;color-interpolation-filters:linearRGB;solid-color:#000000;solid-opacity:1;fill:#ffffff;fill-opacity:1;fill-rule:nonzero;stroke:none;stroke-width:1;stroke-linecap:butt;stroke-linejoin:miter;stroke-miterlimit:4;stroke-dasharray:none;stroke-dashoffset:0;stroke-opacity:1;marker:none;color-rendering:auto;image-rendering:auto;shape-rendering:auto;text-rendering:auto;enable-background:accumulate"
       id="rect4759"
       width="423.92065"
       height="326.65247"
       x="-22.220165"
       y="-327.11081"
       transform="rotate(45.110973)" /><rect
       style="color:#000000;clip-rule:nonzero;display:inline;overflow:visible;visibility:visible;opacity:0.23999999;isolation:auto;mix-blend-mode:normal;color-interpolation:sRGB;color-interpolation-filters:linearRGB;solid-color:#000000;solid-opacity:1;fill:#ffffff;fill-opacity:1;fill-rule:nonzero;stroke:none;stroke-width:1;stroke-linecap:butt;stroke-linejoin:miter;stroke-miterlimit:4;stroke-dasharray:none;stroke-dashoffset:0;stroke-opacity:1;marker:none;color-rendering:auto;image-rendering:auto;shape-rendering:auto;text-rendering:auto;enable-background:accumulate"
       id="rect4759-5"
       width="423.92065"
       height="326.65247"
       x="-203.24326"
       y="-181.54759"
       transform="rotate(135.11097)" /></g><g
     inkscape:groupmode="layer"
     id="layer2"
     inkscape:label="Disk"
     style="display:inline"
     sodipodi:insensitive="true"><circle
       style="fill:url(#XMLID_3_-3);stroke-width:0.36686322"
       r="100.08395"
       cy="128"
       cx="128"
       id="XMLID_45_" /></g><g
     inkscape:groupmode="layer"
     id="layer3"
     inkscape:label="Star"
     style="display:inline"><path
       style="fill:url(#XMLID_4_-6);stroke-width:0.36686322"
       d="M 128.39062,37.34766 108.54297,80.083988 64.289062,63.900395 80.472656,108.15234 37.738281,128 l 42.734375,19.84766 -16.183594,44.25195 44.253908,-16.18359 19.84765,42.73632 19.84766,-42.73632 44.25195,16.18359 L 176.30664,147.84766 219.04102,128 176.30664,108.15234 192.49023,63.900395 148.23828,80.083988 Z"
       id="XMLID_44_"
       inkscape:connector-curvature="0" /><path
       style="fill:url(#linearGradient5207);stroke-width:0.36686322"
       clip-path="none"
       d="M 128 81.085938 C 101.91566 81.085937 80.695312 102.30665 80.695312 128.39062 C 80.695312 154.4746 101.91566 175.69531 128 175.69531 C 154.08471 175.69531 175.30469 154.47459 175.30469 128.39062 C 175.30469 102.30665 154.08471 81.085938 128 81.085938 z M 128 88.904297 C 149.77333 88.904297 167.48633 106.61803 167.48633 128.39062 C 167.48633 150.16395 149.77333 167.87695 128 167.87695 C 106.2274 167.87695 88.513672 150.16396 88.513672 128.39062 C 88.513672 106.61803 106.2274 88.904297 128 88.904297 z "
       id="XMLID_42_" /><path
       style="fill:url(#linearGradient5209);stroke-width:0.36686322"
       clip-path="none"
       d="M 128 65.431641 C 93.284466 65.431641 65.041016 93.675823 65.041016 128.39062 C 65.041016 163.10615 93.284833 191.34961 128 191.34961 C 162.71553 191.34961 190.95898 163.10616 190.95898 128.39062 C 190.95898 93.675457 162.71553 65.431641 128 65.431641 z M 128 69.373047 C 160.54297 69.373047 187.01953 95.847654 187.01953 128.39062 C 187.01953 160.93359 160.54297 187.41016 128 187.41016 C 95.456664 187.41016 68.980469 160.93395 68.980469 128.39062 C 68.980469 95.847284 95.456664 69.373047 128 69.373047 z "
       id="XMLID_39_" /><path
       style="fill:url(#linearGradient5211);stroke-width:0.36686322"
       clip-path="none"
       d="M 128 53.929688 C 86.942135 53.929688 53.539062 87.333128 53.539062 128.39062 C 53.539062 169.4485 86.942135 202.85156 128 202.85156 C 169.0575 202.85156 202.46094 169.44886 202.46094 128.39062 C 202.46094 87.333128 169.0575 53.929688 128 53.929688 z M 128 58.589844 C 166.48836 58.589844 197.80078 89.902635 197.80078 128.39062 C 197.80078 166.87935 166.48836 198.19141 128 198.19141 C 89.511645 198.19141 58.199219 166.87935 58.199219 128.39062 C 58.199219 89.902635 89.511645 58.589844 128 58.589844 z "
       id="XMLID_36_" /><path
       style="fill:url(#linearGradient5213);stroke-width:0.36686322"
       clip-path="none"
       d="M 128 41.890625 C 104.89495 41.890625 83.172238 50.887822 66.833984 67.224609 C 50.496097 83.56323 41.5 105.28596 41.5 128.39062 C 41.5 151.4964 50.496097 173.21717 66.833984 189.55469 C 83.172238 205.89331 104.89495 214.89062 128 214.89062 C 151.10505 214.89062 172.82654 205.89416 189.16406 189.55664 C 205.50268 173.21838 214.5 151.49567 214.5 128.39062 C 214.5 105.28557 205.50194 83.562497 189.16406 67.224609 C 172.82654 50.887089 151.10505 41.890625 128 41.890625 z M 128 47.302734 C 172.71182 47.302734 209.08789 83.6788 209.08789 128.39062 C 209.08789 173.10244 172.71182 209.47852 128 209.47852 C 83.288177 209.47852 46.912109 173.10245 46.912109 128.39062 C 46.912109 83.6788 83.288177 47.302734 128 47.302734 z "
       id="XMLID_33_" /></g></svg>